<?xml version="1.0" encoding="utf-8"?>
<!-- Generator: Adobe Illustrator 22.1.0, SVG Export Plug-In . SVG Version: 6.00 Build 0)  -->
<svg version="1.1" id="Layer_1" xmlns="http://www.w3.org/2000/svg" xmlns:xlink="http://www.w3.org/1999/xlink" x="0px" y="0px"
	 viewBox="0 0 502 100" style="enable-background:new 0 0 502 100;" xml:space="preserve">
<style type="text/css">
	.st0{fill-rule:evenodd;clip-rule:evenodd;fill:#0279C7;}
	.st1{fill:#FFFFFF;}
	.st2{fill-rule:evenodd;clip-rule:evenodd;fill:#FB7922;}
</style>
<path class="st0" d="M117.8,66.8L117.8,66.8c3.7,3,9.3,6.4,16.6,6.4l0,0c4.6,0,8.8-1.4,12.1-3.7l0,0c3.4-2.4,5.9-6.3,5.9-10.8l0,0
	c0-2.1-0.7-4.3-1.8-6.2l0,0c-1.6-2.6-4.1-4.4-6.6-5.5l0,0c-2.7-1.3-5.6-2.1-8.7-2.7h-0.1l-0.1-0.1l0,0c-3.2-0.6-5.6-1.4-6.8-2.2l0,0
	c-0.7-0.4-0.9-0.7-1-0.9l0,0c-0.2-0.3-0.2-0.4-0.2-0.7l0,0c0-0.5,0.3-1.3,1.5-2.1l0,0c1.2-0.9,3.3-1.7,5.6-1.7l0,0
	c3,0,5.6,1.5,8.6,3.5l0,0c2.3,1.6,5.4,0.9,6.9-1.3l0,0c1.4-2.3,0.7-5.4-1.5-6.9l0,0l0,0c-3-2.1-7.6-5.1-14-5.1l0,0
	c-4.3,0-8.2,1.2-11.5,3.5l0,0c-3.1,2.3-5.5,6-5.5,10.3l0,0c0,2.1,0.6,4.2,1.6,5.9l0,0c1.7,2.5,3.9,4.2,6.4,5.4l0,0
	c2.4,1.1,5.2,1.9,8.1,2.4h0.1l0,0l0,0l0,0c3.4,0.7,6.2,1.7,7.5,2.6l0,0c0.7,0.5,1.1,0.8,1.2,1.1l0,0c0.2,0.3,0.3,0.5,0.3,0.9l0,0
	c0,0.7-0.4,1.7-1.7,2.8l0,0c-1.5,0.9-3.8,1.8-6.4,1.8l0,0c-3.6,0.1-7.8-2.1-10.3-4.1l0,0c-2.1-1.8-5.3-1.5-7,0.7l0,0
	C115.5,61.9,115.8,65.1,117.8,66.8L117.8,66.8z M491.6,13v55.1c0,2.8,2.3,5.1,5.1,5.1c2.9,0,5.2-2.3,5.2-5.1V13
	c0-2.8-2.3-5.1-5.2-5.1C494,7.8,491.6,10.2,491.6,13L491.6,13z M486.2,31.6c0-2.8-2.2-5-4.9-5c-2.4,0-4.3,1.8-4.9,4.1
	c-3.6-2.5-7.8-4.1-12.4-4.1c-6.4,0-11.9,2.7-15.9,7c-4,4.2-6.4,10-6.4,16.4c0,6.4,2.3,12.1,6.4,16.4c4,4.2,9.5,6.8,15.9,6.8l0,0
	c4.7,0,8.9-1.5,12.4-4c0.6,2.2,2.4,4,4.9,4c2.7,0,4.9-2.2,4.9-5V50l0,0l0,0V31.6L486.2,31.6z M472.7,59.6c-2.2,2.3-5.4,3.6-8.7,3.6
	c-3.4,0-6.5-1.3-8.7-3.6c-2.2-2.4-3.5-5.8-3.5-9.6c0-3.9,1.3-7.3,3.5-9.6c2.1-2.5,5.3-3.8,8.7-3.8c3.3,0,6.4,1.3,8.7,3.8
	c2.2,2.3,3.6,5.7,3.6,9.6C476.3,53.8,474.9,57.2,472.7,59.6L472.7,59.6z M416.9,36.5c5.1,0,9.4,4.3,9.4,9.6v22.1c0,2.7,2.3,5,5,5
	c2.7,0,5-2.2,5-5V46.1c0-10.8-8.7-19.6-19.4-19.6c-5.9,0-11.2,2.4-14.7,6.4c-3.5-4-8.8-6.4-14.7-6.4c-3.5,0-7,1-10,2.8
	c-0.7-1.8-2.5-2.8-4.5-2.8c-2.7,0-4.9,2.1-4.9,5V46c0,0,0,0,0,0.1v22.1c0,2.5,1.8,4.4,4,5c0.3-0.1,0.6,0,0.9,0c2,0,3.8-1.3,4.7-3
	l0,0c0-0.2,0-0.4,0-0.5c0.2-0.2,0.2-0.4,0.3-0.6c0,0,0-0.2,0-0.3c0-0.2,0.1-0.5,0.1-0.7l0,0V46.1c0-5.3,4.3-9.6,9.4-9.6
	c5.2,0,9.5,4.2,9.6,9.3c0,0.1,0,0.2,0,0.3v22.1c0,2.7,2.4,5,5,5l0,0l0,0c2.7,0,4.9-2.2,4.9-5V46.1c0-0.1,0-0.2,0-0.3
	C407.4,40.7,411.6,36.5,416.9,36.5L416.9,36.5z M352.4,13v55.1c0,2.8,2.3,5.1,5.1,5.1c2.9,0,5.2-2.3,5.2-5.1V13
	c0-2.8-2.3-5.1-5.2-5.1C354.7,7.8,352.4,10.2,352.4,13L352.4,13z M347,31.6c0-2.8-2.2-5-5-5c-2.4,0-4.3,1.8-4.9,4.1
	c-3.5-2.5-7.8-4.1-12.4-4.1c-6.4,0-11.9,2.7-15.9,7c-4,4.2-6.4,10-6.4,16.4c0,6.4,2.3,12.1,6.4,16.4c4,4.2,9.5,6.8,15.9,6.8l0,0
	c4.7,0,8.9-1.5,12.4-4c0.6,2.2,2.4,4,4.9,4c2.7,0,5-2.2,5-5V50l0,0l0,0V31.6L347,31.6z M333.4,59.6c-2.2,2.3-5.4,3.6-8.7,3.6
	c-3.4,0-6.5-1.3-8.7-3.6c-2.2-2.4-3.5-5.8-3.5-9.6c0-3.9,1.3-7.3,3.5-9.6c2.1-2.5,5.3-3.8,8.7-3.8c3.3,0,6.4,1.3,8.7,3.8
	c2.2,2.3,3.6,5.7,3.6,9.6C337,53.8,335.6,57.2,333.4,59.6L333.4,59.6z M292,90.7c2.8,0,5-2.3,5-5V50c0,0,0,0,0-0.1l0,0V31.6
	c0-2.8-2.2-5-5-5c-2.5,0-4.6,1.8-5,3.9c-3.6-2.3-7.9-3.9-12.7-3.9c-12.6,0-22.7,10.6-22.7,23.3c0,12.9,10.1,23.3,22.7,23.3
	c4.7,0,9-1.5,12.5-3.9v16.4C286.9,88.3,289.1,90.7,292,90.7L292,90.7z M283.1,40.6c2.4,2.2,3.8,5.7,3.8,9.2c0,3.8-1.4,7.2-3.8,9.4
	c-2.1,2.6-5.3,3.9-8.7,3.9c-3.3,0-6.3-1.3-8.8-3.9c-2.2-2.2-3.8-5.6-3.8-9.4c0-3.5,1.6-7,3.8-9.2c2.4-2.5,5.5-4,8.8-4
	C277.7,36.6,280.9,38.1,283.1,40.6L283.1,40.6z M246.3,53.8V31.5c0-2.6-2.4-5-5-5c-2.8,0-4.9,2.3-4.9,5l0,0v22.3
	c-0.1,5.3-4.4,9.5-9.8,9.5c-5.3,0-9.5-4.2-9.5-9.5V31.5c0-2.6-2.1-5-4.9-5c-2.7,0-5,2.3-5,5v22.3c0,10.6,8.8,19.4,19.4,19.4
	C237.3,73.2,246.3,64.4,246.3,53.8L246.3,53.8z M179.6,73.5L179.6,73.5c6.2,0,11.8-2.7,15.6-7.1c4.2-4.1,6.5-9.9,6.5-16.4l0,0
	c0-6.4-2.3-11.9-6.5-16.3c-3.8-4.4-9.4-7.1-15.6-7.1c-6.4,0-11.9,2.7-16.1,7.1c-4,4.5-6.4,10-6.4,16.3c0,6.5,2.4,12.3,6.4,16.4
	C167.7,70.8,173.1,73.5,179.6,73.5L179.6,73.5z M170.6,40.2c2.3-2.1,5.4-3.6,9-3.6c3.3,0,6.3,1.5,8.6,3.6c2.3,2.5,3.6,5.9,3.6,9.7
	l0,0c0,4-1.3,7.3-3.6,9.9c-2.3,2.2-5.3,3.5-8.6,3.5c-3.5,0-6.6-1.2-9-3.5c-2.1-2.6-3.4-5.9-3.4-9.9
	C167.2,46.1,168.5,42.8,170.6,40.2z"/>
<g>
	<circle class="st1" cx="50" cy="50" r="40"/>
</g>
<path class="st2" d="M50-0.1L50-0.1c27.5,0,50,22.5,50,50l0,0c0,27.5-22.5,50-50,50l0,0c-27.5,0-50-22.5-50-50l0,0
	C0,22.4,22.5-0.1,50-0.1L50-0.1z M48.2,72.3c-3.9-0.4-9.6-2-11.9-5.4c-0.2-0.3-0.4-0.6-0.5-0.9c-1.1-1.7-3.1-2.7-5.1-2.7
	c-3.4,0-6.2,2.8-6.2,6.2c0,0.9,0.2,1.8,0.6,2.7c0.4,0.8,1.1,1.7,1.7,2.5c4.8,6.2,13,9.4,20.7,10c1.2,0.1,2.3,0.2,3.5-0.1
	c2.7-0.7,4.6-3.2,4.6-6c0-3.1-2.4-5.8-5.4-6.1C49.5,72.4,48.8,72.4,48.2,72.3L48.2,72.3z M77,64.2C77,37.9,38.9,49,35.4,36.5
	c-0.3-1.2,0-2.3,0.6-3.4c0.5-0.8,1-1.4,1.3-2.3c1.3-3.9-1.7-8.1-5.9-8.1c-4.5,0-7,5-8,8.7c-0.4,1.4-0.5,2.7-0.5,4.1
	c0,26.3,38.1,15.2,41.6,27.8c0.3,1.2,0,2.3-0.6,3.4c-0.5,0.8-1,1.4-1.3,2.3c-1.3,3.9,1.7,8.1,5.9,8.1c4.5,0,7-5,8-8.7
	C76.8,67,77,65.6,77,64.2L77,64.2z M51.8,27.4c3.9,0.4,9.6,2,11.9,5.4c0.2,0.3,0.4,0.6,0.5,0.9c1.1,1.7,3.1,2.7,5.1,2.7
	c3.4,0,6.2-2.8,6.2-6.2c0-0.9-0.2-1.8-0.6-2.7c-0.4-0.8-1.1-1.7-1.7-2.5c-4.8-6.2-13-9.4-20.7-10c-1.2-0.1-2.3-0.2-3.5,0.1
	c-2.7,0.7-4.6,3.2-4.6,6c0,3.1,2.4,5.8,5.4,6.1C50.5,27.4,51.2,27.3,51.8,27.4z"/>
</svg>
